<svg width="25" height="25" viewBox="0 0 25 25" fill="none" xmlns="http://www.w3.org/2000/svg">
<g clip-path="url(#clip0_82_547)">
<path d="M12.0766 23.5675H5.55604C3.78397 23.5675 2.34615 22.1244 2.34615 20.3576V4.6424C2.34615 2.87033 3.78927 1.43251 5.55604 1.43251H12.1827C12.5807 1.43251 12.899 1.11418 12.899 0.716256C12.899 0.318336 12.5807 0 12.1827 0H5.55604C2.99343 0 0.913635 2.0851 0.913635 4.6424V20.3576C0.913635 22.9202 2.99874 25 5.55604 25H12.0766C12.4745 25 12.7929 24.6817 12.7929 24.2837C12.7929 23.8858 12.4692 23.5675 12.0766 23.5675Z" fill="black"/>
<path d="M23.8763 11.996L19.3241 7.44381C19.0429 7.16261 18.5919 7.16261 18.3107 7.44381C18.0295 7.725 18.0295 8.17598 18.3107 8.45718L21.6426 11.7891H7.11057C6.71265 11.7891 6.39432 12.1074 6.39432 12.5054C6.39432 12.9033 6.71265 13.2216 7.11057 13.2216H21.6426L18.3107 16.5535C18.0295 16.8347 18.0295 17.2857 18.3107 17.5669C18.4486 17.7048 18.6343 17.7791 18.8147 17.7791C18.9951 17.7791 19.1808 17.7101 19.3188 17.5669L23.871 13.0147C24.1575 12.7282 24.1575 12.2719 23.8763 11.996Z" fill="black"/>
</g>
<defs>
<clipPath id="clip0_82_547">
<rect width="25" height="25" fill="white"/>
</clipPath>
</defs>
</svg>
